<?xml version="1.0" encoding="utf-8"?>
<!-- Generator: Adobe Illustrator 16.0.3, SVG Export Plug-In . SVG Version: 6.00 Build 0)  -->
<!DOCTYPE svg PUBLIC "-//W3C//DTD SVG 1.1//EN" "http://www.w3.org/Graphics/SVG/1.1/DTD/svg11.dtd">
<svg version="1.1" id="Layer_1" xmlns="http://www.w3.org/2000/svg" xmlns:xlink="http://www.w3.org/1999/xlink" x="0px" y="0px"
	 width="161px" height="160px" viewBox="0 0 161 160" enable-background="new 0 0 161 160" xml:space="preserve">
<path fill="#F06728" d="M147.168,134.667c0,6.627-5.373,12-12,12H25.832c-6.627,0-12-5.373-12-12V25.333c0-6.627,5.373-12,12-12
	h109.336c6.627,0,12,5.373,12,12V134.667z"/>
<path fill="#FFFFFF" stroke="#FFFFFF" stroke-miterlimit="10" d="M59.879,49.991v51.401c0,19.274,8.606,27.495,20.302,27.495
	c12.592,0,20.947-8.481,20.947-27.495V49.991h11.303v50.627c0,26.606-14.003,37.391-32.762,37.391
	c-17.734,0-31.1-10.019-31.1-36.998v-51.02H59.879z M69.005,37.613c-3.604,0-6.171-2.957-6.171-6.426
	c0-3.598,2.696-6.552,6.295-6.552c3.6,0,6.167,2.822,6.167,6.552c0,3.469-2.443,6.426-6.167,6.426H69.005z M92.388,37.613
	c-3.598,0-6.042-2.957-6.042-6.426c0-3.598,2.702-6.552,6.298-6.552c3.6,0,6.169,2.822,6.169,6.552c0,3.469-2.442,6.426-6.294,6.426
	H92.388z"/>
</svg>
